Coordinates
nRows=135
nColumns=2
inDegrees=yes
endheader
time	ankle_angle_r	
4.36565	 19.103952	
4.43722	 19.124546	
4.50878	 19.151457	
4.58035	 19.076910	
4.65192	 19.060072	
4.72349	 19.132018	
4.79506	 19.143077	
4.86662	 19.081827	
4.93819	 19.037334	
5.00976	 19.119930	
5.08133	 19.168840	
5.1529	 19.080651	
5.22446	 19.054493	
5.29603	 19.115234	
5.3676	 19.119136	
5.43917	 19.038654	
5.51074	 19.039903	
5.5823	 19.139474	
5.65387	 19.146398	
5.72544	 19.077941	
5.79701	 19.097156	
5.86858	 19.184122	
5.94014	 19.154708	
6.01171	 19.071039	
6.08328	 19.100625	
6.15485	 19.153055	
6.22642	 19.102674	
6.29798	 19.033334	
6.36955	 19.091653	
6.44112	 19.137155	
6.51269	 19.068041	
6.58426	 19.033460	
6.65582	 19.075479	
6.72739	 19.117579	
6.79896	 19.066851	
6.87053	 19.010431	
6.9421	 19.049093	
7.01366	 19.084770	
7.08523	 19.050429	
7.1568	 19.022067	
7.22837	 19.105257	
7.29994	 19.136703	
7.3715	 19.037309	
7.44307	 19.022074	
7.51464	 19.100542	
7.58621	 19.119824	
7.65778	 19.052434	
7.72934	 19.056988	
7.80091	 19.137969	
7.87248	 19.129429	
7.94405	 19.087249	
8.01562	 19.110413	
8.08718	 19.157588	
8.15875	 19.139524	
8.23032	 19.083056	
8.30189	 19.085814	
8.37346	 19.142820	
8.44502	 19.142402	
8.51659	 19.051151	
8.58816	 19.043583	
8.65973	 19.113888	
8.7313	 19.104623	
8.80286	 19.037219	
8.87443	 19.032037	
8.946	 19.099488	
9.01757	 19.081758	
9.08914	 19.043948	
9.1607	 19.106967	
9.23227	 19.147152	
9.30384	 19.096799	
9.37541	 19.050726	
9.44698	 19.122731	
9.51854	 19.165377	
9.59011	 19.085609	
9.66168	 19.062969	
9.73325	 19.122596	
9.80482	 19.143330	
9.87638	 19.074902	
9.94795	 19.048189	
10.0195	 19.116525	
10.0911	 19.140559	
10.1627	 19.069234	
10.2342	 19.020399	
10.3058	 19.107092	
10.3774	 19.132632	
10.4489	 19.028107	
10.5205	 19.031189	
10.5921	 19.106846	
10.6636	 19.079618	
10.7352	 18.990683	
10.8068	 19.010419	
10.8783	 19.089842	
10.9499	 19.076259	
11.0215	 19.028559	
11.093	 19.048783	
11.1646	 19.130346	
11.2362	 19.132638	
11.3077	 19.058971	
11.3793	 19.069037	
11.4509	 19.138930	
11.5224	 19.133236	
11.594	 19.061442	
11.6656	 19.077888	
11.7372	 19.139499	
11.8087	 19.126527	
11.8803	 19.091295	
11.9519	 19.115857	
12.0234	 19.166094	
12.095	 19.108123	
12.1666	 19.048808	
12.2381	 19.100597	
12.3097	 19.124372	
12.3813	 19.071654	
12.4528	 19.035094	
12.5244	 19.084894	
12.596	 19.102722	
12.6675	 19.039759	
12.7391	 19.031110	
12.8107	 19.079963	
12.8822	 19.092309	
12.9538	 19.022635	
13.0254	 18.988550	
13.0969	 19.059339	
13.1685	 19.088217	
13.2401	 19.026978	
13.3116	 19.027253	
13.3832	 19.132310	
13.4548	 19.147123	
13.5264	 19.074068	
13.5979	 19.101651	
13.6695	 19.166811	
13.7411	 19.130700	
13.8126	 19.060627	
13.8842	 19.079116	
13.9558	 19.164646	
